<svg xmlns="http://www.w3.org/2000/svg" viewBox="0 0 512 512">
  <defs>
    <linearGradient id="bg" x1="0%" y1="0%" x2="100%" y2="100%">
      <stop offset="0%" stop-color="#2563eb"/>
      <stop offset="100%" stop-color="#1e40af"/>
    </linearGradient>
  </defs>

  <!-- Sfondo arrotondato -->
  <rect width="512" height="512" rx="96" fill="url(#bg)"/>

  <!-- Icona "Boxes" di Lucide, viewBox 24x24 scalata a ~300px e centrata -->
  <g transform="translate(106, 106) scale(12.5)"
     fill="none"
     stroke="white"
     stroke-width="1.8"
     stroke-linecap="round"
     stroke-linejoin="round">

    <!-- Cubo in basso a sinistra -->
    <path d="M2.97 12.92A2 2 0 0 0 2 14.63v3.24a2 2 0 0 0 .97 1.71l3 1.8a2 2 0 0 0 2.06 0L12 19v-5.5l-5-3-4.03 2.42Z"/>
    <path d="M7 16.5l-4.74-2.85"/>
    <path d="M7 16.5l5-3"/>
    <path d="M7 16.5V21"/>

    <!-- Cubo in basso a destra -->
    <path d="M12 13.5V19l3.97 2.38a2 2 0 0 0 2.06 0l3-1.8a2 2 0 0 0 .97-1.71v-3.24a2 2 0 0 0-.97-1.71L17 10.5l-5 3Z"/>
    <path d="M17 16.5l-5-3"/>
    <path d="M17 16.5l4.74-2.85"/>
    <path d="M17 16.5V21"/>

    <!-- Cubo in alto al centro -->
    <path d="M7.97 4.42A2 2 0 0 0 7 6.13v4.37l5 3 5-3V6.13a2 2 0 0 0-.97-1.71l-3-1.8a2 2 0 0 0-2.06 0l-3 1.8Z"/>
    <path d="M12 8l-5-3"/>
    <path d="M12 8l5-3"/>
    <path d="M12 8v5.5"/>
  </g>
</svg>
